solid 
facet normal 0.505220 -0.523331 0.686205
outer loop
vertex 50.000000 -50.000000 -34.422900
vertex 49.999890 -40.000086 -26.796428
vertex 39.999942 -39.999942 -19.433836
endloop
endfacet
facet normal 0.536393 -0.477910 0.695618
outer loop
vertex 49.999890 -40.000086 -26.796428
vertex 49.999762 -30.000108 -19.926053
vertex 39.999852 -30.000039 -12.215050
endloop
endfacet
facet normal 0.512576 -0.502570 0.696196
outer loop
vertex 49.999890 -40.000086 -26.796428
vertex 39.999852 -30.000039 -12.215050
vertex 39.999942 -39.999942 -19.433836
endloop
endfacet
facet normal 0.358106 -0.546492 0.757038
outer loop
vertex 39.999942 -39.999942 -19.433836
vertex 39.999852 -30.000039 -12.215050
vertex 29.999923 -29.999923 -7.484638
endloop
endfacet
facet normal 0.546062 -0.407875 0.731747
outer loop
vertex 49.999762 -30.000108 -19.926053
vertex 49.999645 -20.000095 -14.351977
vertex 39.999753 -20.000082 -6.889605
endloop
endfacet
facet normal 0.562655 -0.388580 0.729675
outer loop
vertex 49.999762 -30.000108 -19.926053
vertex 39.999753 -20.000082 -6.889605
vertex 39.999852 -30.000039 -12.215050
endloop
endfacet
facet normal 0.487826 -0.410320 0.770495
outer loop
vertex 39.999852 -30.000039 -12.215050
vertex 39.999753 -20.000082 -6.889605
vertex 29.999848 -20.000027 -0.558305
endloop
endfacet
facet normal 0.362429 -0.530681 0.766175
outer loop
vertex 39.999852 -30.000039 -12.215050
vertex 29.999848 -20.000027 -0.558305
vertex 29.999923 -29.999923 -7.484638
endloop
endfacet
facet normal 0.194712 -0.558496 0.806331
outer loop
vertex 29.999923 -29.999923 -7.484638
vertex 29.999848 -20.000027 -0.558305
vertex 19.999933 -19.999933 1.856524
endloop
endfacet
facet normal 0.545482 -0.305979 0.780273
outer loop
vertex 49.999645 -20.000095 -14.351977
vertex 49.999558 -10.000067 -10.430476
vertex 39.999669 -10.000097 -3.439655
endloop
endfacet
facet normal 0.576444 -0.266490 0.772460
outer loop
vertex 49.999645 -20.000095 -14.351977
vertex 39.999669 -10.000097 -3.439655
vertex 39.999753 -20.000082 -6.889605
endloop
endfacet
facet normal 0.547216 -0.272966 0.791230
outer loop
vertex 39.999753 -20.000082 -6.889605
vertex 39.999669 -10.000097 -3.439655
vertex 29.999771 -10.000088 3.476298
endloop
endfacet
facet normal 0.506323 -0.322649 0.799709
outer loop
vertex 39.999753 -20.000082 -6.889605
vertex 29.999771 -10.000088 3.476298
vertex 29.999848 -20.000027 -0.558305
endloop
endfacet
facet normal 0.429558 -0.337876 0.837448
outer loop
vertex 29.999848 -20.000027 -0.558305
vertex 29.999771 -10.000088 3.476298
vertex 19.999865 -10.000040 8.605635
endloop
endfacet
facet normal 0.196264 -0.548545 0.812760
outer loop
vertex 29.999848 -20.000027 -0.558305
vertex 19.999865 -10.000040 8.605635
vertex 19.999933 -19.999933 1.856524
endloop
endfacet
facet normal 0.034444 -0.559094 0.828388
outer loop
vertex 19.999933 -19.999933 1.856524
vertex 19.999865 -10.000040 8.605635
vertex 9.999962 -9.999962 9.021481
endloop
endfacet
facet normal 0.543190 -0.169867 0.822247
outer loop
vertex 49.999558 -10.000067 -10.430476
vertex 49.999513 -0.000038 -8.364553
vertex 39.999617 -0.000101 -1.758476
endloop
endfacet
facet normal 0.567599 -0.136494 0.811911
outer loop
vertex 49.999558 -10.000067 -10.430476
vertex 39.999617 -0.000101 -1.758476
vertex 39.999669 -10.000097 -3.439655
endloop
endfacet
facet normal 0.564184 -0.136883 0.814223
outer loop
vertex 39.999669 -10.000097 -3.439655
vertex 39.999617 -0.000101 -1.758476
vertex 29.999714 -0.000127 5.170564
endloop
endfacet
facet normal 0.563374 -0.138011 0.814593
outer loop
vertex 39.999669 -10.000097 -3.439655
vertex 29.999714 -0.000127 5.170564
vertex 29.999771 -10.000088 3.476298
endloop
endfacet
facet normal 0.535610 -0.141062 0.832600
outer loop
vertex 29.999771 -10.000088 3.476298
vertex 29.999714 -0.000127 5.170564
vertex 19.999805 -0.000115 11.603486
endloop
endfacet
facet normal 0.440980 -0.257729 0.859716
outer loop
vertex 29.999771 -10.000088 3.476298
vertex 19.999805 -0.000115 11.603486
vertex 19.999865 -10.000040 8.605635
endloop
endfacet
facet normal 0.365948 -0.267240 0.891440
outer loop
vertex 19.999865 -10.000040 8.605635
vertex 19.999805 -0.000115 11.603486
vertex 9.999897 -0.000069 15.708601
endloop
endfacet
facet normal 0.034543 -0.555549 0.830766
outer loop
vertex 19.999865 -10.000040 8.605635
vertex 9.999897 -0.000069 15.708601
vertex 9.999962 -9.999962 9.021481
endloop
endfacet
facet normal -0.104709 -0.552826 0.826692
outer loop
vertex 9.999962 -9.999962 9.021481
vertex 9.999897 -0.000069 15.708601
vertex -0.000000 -0.000000 14.442062
endloop
endfacet
facet normal 0.548100 -0.010869 0.836342
outer loop
vertex 49.999513 -0.000038 -8.364553
vertex 49.999514 9.999986 -8.234597
vertex 39.999605 9.999894 -1.681123
endloop
endfacet
facet normal 0.551188 -0.006453 0.834356
outer loop
vertex 49.999513 -0.000038 -8.364553
vertex 39.999605 9.999894 -1.681123
vertex 39.999617 -0.000101 -1.758476
endloop
endfacet
facet normal 0.559512 -0.006410 0.828797
outer loop
vertex 39.999617 -0.000101 -1.758476
vertex 39.999605 9.999894 -1.681123
vertex 29.999690 9.999840 5.069713
endloop
endfacet
facet normal 0.569525 0.008291 0.821932
outer loop
vertex 39.999617 -0.000101 -1.758476
vertex 29.999690 9.999840 5.069713
vertex 29.999714 -0.000127 5.170564
endloop
endfacet
facet normal 0.564594 0.008325 0.825327
outer loop
vertex 29.999714 -0.000127 5.170564
vertex 29.999690 9.999840 5.069713
vertex 19.999769 9.999825 11.910512
endloop
endfacet
facet normal 0.540840 -0.025811 0.840730
outer loop
vertex 29.999714 -0.000127 5.170564
vertex 19.999769 9.999825 11.910512
vertex 19.999805 -0.000115 11.603486
endloop
endfacet
facet normal 0.515157 -0.026301 0.856692
outer loop
vertex 19.999805 -0.000115 11.603486
vertex 19.999769 9.999825 11.910512
vertex 9.999846 9.999846 17.923790
endloop
endfacet
facet normal 0.372029 -0.200752 0.906252
outer loop
vertex 19.999805 -0.000115 11.603486
vertex 9.999846 9.999846 17.923790
vertex 9.999897 -0.000069 15.708601
endloop
endfacet
facet normal 0.303178 -0.206097 0.930380
outer loop
vertex 9.999897 -0.000069 15.708601
vertex 9.999846 9.999846 17.923790
vertex -0.000069 9.999897 21.182424
endloop
endfacet
facet normal -0.104454 -0.555871 0.824680
outer loop
vertex 9.999897 -0.000069 15.708601
vertex -0.000069 9.999897 21.182424
vertex -0.000000 -0.000000 14.442062
endloop
endfacet
facet normal -0.213261 -0.546071 0.810140
outer loop
vertex -0.000000 -0.000000 14.442062
vertex -0.000069 9.999897 21.182424
vertex -9.999962 9.999962 18.550099
endloop
endfacet
facet normal 0.568132 0.145346 0.810000
outer loop
vertex 49.999514 9.999986 -8.234597
vertex 49.999566 20.000002 -10.029030
vertex 39.999638 19.999884 -3.015083
endloop
endfacet
facet normal 0.544751 0.110882 0.831235
outer loop
vertex 49.999514 9.999986 -8.234597
vertex 39.999638 19.999884 -3.015083
vertex 39.999605 9.999894 -1.681123
endloop
endfacet
facet normal 0.553072 0.110159 0.825819
outer loop
vertex 39.999605 9.999894 -1.681123
vertex 39.999638 19.999884 -3.015083
vertex 29.999706 19.999805 3.682134
endloop
endfacet
facet normal 0.555859 0.114251 0.823387
outer loop
vertex 39.999605 9.999894 -1.681123
vertex 29.999706 19.999805 3.682134
vertex 29.999690 9.999840 5.069713
endloop
endfacet
facet normal 0.558861 0.113974 0.821392
outer loop
vertex 29.999690 9.999840 5.069713
vertex 29.999706 19.999805 3.682134
vertex 19.999767 19.999767 10.485923
endloop
endfacet
facet normal 0.560751 0.116776 0.819709
outer loop
vertex 29.999690 9.999840 5.069713
vertex 19.999767 19.999767 10.485923
vertex 19.999769 9.999825 11.910512
endloop
endfacet
facet normal 0.554253 0.117391 0.824029
outer loop
vertex 19.999769 9.999825 11.910512
vertex 19.999767 19.999767 10.485923
vertex 9.999825 19.999769 17.212018
endloop
endfacet
facet normal 0.514379 0.060886 0.855399
outer loop
vertex 19.999769 9.999825 11.910512
vertex 9.999825 19.999769 17.212018
vertex 9.999846 9.999846 17.923790
endloop
endfacet
facet normal 0.491437 0.061834 0.868715
outer loop
vertex 9.999846 9.999846 17.923790
vertex 9.999825 19.999769 17.212018
vertex -0.000115 19.999805 22.869039
endloop
endfacet
facet normal 0.305922 -0.158339 0.938797
outer loop
vertex 9.999846 9.999846 17.923790
vertex -0.000115 19.999805 22.869039
vertex -0.000069 9.999897 21.182424
endloop
endfacet
facet normal 0.247442 -0.161141 0.955409
outer loop
vertex -0.000069 9.999897 21.182424
vertex -0.000115 19.999805 22.869039
vertex -10.000040 19.999865 25.458933
endloop
endfacet
facet normal -0.211670 -0.555543 0.804095
outer loop
vertex -0.000069 9.999897 21.182424
vertex -10.000040 19.999865 25.458933
vertex -9.999962 9.999962 18.550099
endloop
endfacet
facet normal -0.289892 -0.544014 0.787408
outer loop
vertex -9.999962 9.999962 18.550099
vertex -10.000040 19.999865 25.458933
vertex -19.999933 19.999933 21.777421
endloop
endfacet
facet normal 0.605778 0.272529 0.747503
outer loop
vertex 49.999566 20.000002 -10.029030
vertex 49.999666 30.000008 -13.674968
vertex 39.999718 29.999866 -5.570933
endloop
endfacet
facet normal 0.562057 0.204806 0.801340
outer loop
vertex 49.999566 20.000002 -10.029030
vertex 39.999718 29.999866 -5.570933
vertex 39.999638 19.999884 -3.015083
endloop
endfacet
facet normal 0.562370 0.204754 0.801134
outer loop
vertex 39.999638 19.999884 -3.015083
vertex 39.999718 29.999866 -5.570933
vertex 29.999765 29.999765 1.448735
endloop
endfacet
facet normal 0.547118 0.182451 0.816930
outer loop
vertex 39.999638 19.999884 -3.015083
vertex 29.999765 29.999765 1.448735
vertex 29.999706 19.999805 3.682134
endloop
endfacet
facet normal 0.547752 0.182360 0.816525
outer loop
vertex 29.999706 19.999805 3.682134
vertex 29.999765 29.999765 1.448735
vertex 19.999805 29.999706 8.157049
endloop
endfacet
facet normal 0.552380 0.189073 0.811867
outer loop
vertex 29.999706 19.999805 3.682134
vertex 19.999805 29.999706 8.157049
vertex 19.999767 19.999767 10.485923
endloop
endfacet
facet normal 0.550181 0.189402 0.813282
outer loop
vertex 19.999767 19.999767 10.485923
vertex 19.999805 29.999706 8.157049
vertex 9.999840 29.999690 14.921983
endloop
endfacet
facet normal 0.548301 0.186680 0.815179
outer loop
vertex 19.999767 19.999767 10.485923
vertex 9.999840 29.999690 14.921983
vertex 9.999825 19.999769 17.212018
endloop
endfacet
facet normal 0.540175 0.187856 0.820317
outer loop
vertex 9.999825 19.999769 17.212018
vertex 9.999840 29.999690 14.921983
vertex -0.000127 29.999714 21.506913
endloop
endfacet
facet normal 0.488955 0.117734 0.864327
outer loop
vertex 9.999825 19.999769 17.212018
vertex -0.000127 29.999714 21.506913
vertex -0.000115 19.999805 22.869039
endloop
endfacet
facet normal 0.469334 0.119180 0.874941
outer loop
vertex -0.000115 19.999805 22.869039
vertex -0.000127 29.999714 21.506913
vertex -10.000088 29.999771 26.871065
endloop
endfacet
facet normal 0.248408 -0.135443 0.959140
outer loop
vertex -0.000115 19.999805 22.869039
vertex -10.000088 29.999771 26.871065
vertex -10.000040 19.999865 25.458933
endloop
endfacet
facet normal 0.203480 -0.136901 0.969461
outer loop
vertex -10.000040 19.999865 25.458933
vertex -10.000088 29.999771 26.871065
vertex -20.000027 29.999848 28.969959
endloop
endfacet
facet normal -0.286362 -0.559457 0.777820
outer loop
vertex -10.000040 19.999865 25.458933
vertex -20.000027 29.999848 28.969959
vertex -19.999933 19.999933 21.777421
endloop
endfacet
facet normal -0.337346 -0.549683 0.764229
outer loop
vertex -19.999933 19.999933 21.777421
vertex -20.000027 29.999848 28.969959
vertex -29.999923 29.999923 24.555858
endloop
endfacet
facet normal 0.656024 0.358293 0.664273
outer loop
vertex 49.999666 30.000008 -13.674968
vertex 49.999811 40.000007 -19.068871
vertex 39.999842 39.999842 -9.192988
endloop
endfacet
facet normal 0.606072 0.270874 0.747866
outer loop
vertex 49.999666 30.000008 -13.674968
vertex 39.999842 39.999842 -9.192988
vertex 39.999718 29.999866 -5.570933
endloop
endfacet
facet normal 0.596539 0.273318 0.754612
outer loop
vertex 39.999718 29.999866 -5.570933
vertex 39.999842 39.999842 -9.192988
vertex 29.999866 39.999718 -1.287717
endloop
endfacet
facet normal 0.560653 0.218553 0.798688
outer loop
vertex 39.999718 29.999866 -5.570933
vertex 29.999866 39.999718 -1.287717
vertex 29.999765 29.999765 1.448735
endloop
endfacet
facet normal 0.552731 0.219954 0.803809
outer loop
vertex 29.999765 29.999765 1.448735
vertex 29.999866 39.999718 -1.287717
vertex 19.999884 39.999638 5.588688
endloop
endfacet
facet normal 0.544838 0.208595 0.812182
outer loop
vertex 29.999765 29.999765 1.448735
vertex 19.999884 39.999638 5.588688
vertex 19.999805 29.999706 8.157049
endloop
endfacet
facet normal 0.537840 0.209716 0.816546
outer loop
vertex 19.999805 29.999706 8.157049
vertex 19.999884 39.999638 5.588688
vertex 9.999894 39.999605 12.175452
endloop
endfacet
facet normal 0.546364 0.221820 0.807640
outer loop
vertex 19.999805 29.999706 8.157049
vertex 9.999894 39.999605 12.175452
vertex 9.999840 29.999690 14.921983
endloop
endfacet
facet normal 0.538897 0.223097 0.812292
outer loop
vertex 9.999840 29.999690 14.921983
vertex 9.999894 39.999605 12.175452
vertex -0.000101 39.999617 18.809724
endloop
endfacet
facet normal 0.536522 0.219760 0.814770
outer loop
vertex 9.999840 29.999690 14.921983
vertex -0.000101 39.999617 18.809724
vertex -0.000127 29.999714 21.506913
endloop
endfacet
facet normal 0.526688 0.221367 0.820729
outer loop
vertex -0.000127 29.999714 21.506913
vertex -0.000101 39.999617 18.809724
vertex -10.000097 39.999669 25.227027
endloop
endfacet
facet normal 0.467819 0.143381 0.872116
outer loop
vertex -0.000127 29.999714 21.506913
vertex -10.000097 39.999669 25.227027
vertex -10.000088 29.999771 26.871065
endloop
endfacet
facet normal 0.451965 0.144713 0.880219
outer loop
vertex -10.000088 29.999771 26.871065
vertex -10.000097 39.999669 25.227027
vertex -20.000082 39.999753 30.361696
endloop
endfacet
facet normal 0.203534 -0.134960 0.969721
outer loop
vertex -10.000088 29.999771 26.871065
vertex -20.000082 39.999753 30.361696
vertex -20.000027 29.999848 28.969959
endloop
endfacet
facet normal 0.174156 -0.135739 0.975318
outer loop
vertex -20.000027 29.999848 28.969959
vertex -20.000082 39.999753 30.361696
vertex -30.000039 39.999852 32.147331
endloop
endfacet
facet normal -0.331682 -0.570429 0.751397
outer loop
vertex -20.000027 29.999848 28.969959
vertex -30.000039 39.999852 32.147331
vertex -29.999923 29.999923 24.555858
endloop
endfacet
facet normal -0.359063 -0.564336 0.743370
outer loop
vertex -29.999923 29.999923 24.555858
vertex -30.000039 39.999852 32.147331
vertex -39.999942 39.999942 27.317241
endloop
endfacet
facet normal 0.709657 0.405504 0.576155
outer loop
vertex 49.999811 40.000007 -19.068871
vertex 50.000000 50.000000 -26.107200
vertex 40.000007 49.999811 -13.789961
endloop
endfacet
facet normal 0.667861 0.310864 0.676258
outer loop
vertex 49.999811 40.000007 -19.068871
vertex 40.000007 49.999811 -13.789961
vertex 39.999842 39.999842 -9.192988
endloop
endfacet
facet normal 0.652496 0.316506 0.688530
outer loop
vertex 39.999842 39.999842 -9.192988
vertex 40.000007 49.999811 -13.789961
vertex 30.000008 49.999666 -4.313243
endloop
endfacet
facet normal 0.603391 0.230924 0.763278
outer loop
vertex 39.999842 39.999842 -9.192988
vertex 30.000008 49.999666 -4.313243
vertex 29.999866 39.999718 -1.287717
endloop
endfacet
facet normal 0.586516 0.234542 0.775235
outer loop
vertex 29.999866 39.999718 -1.287717
vertex 30.000008 49.999666 -4.313243
vertex 20.000002 49.999566 3.252448
endloop
endfacet
facet normal 0.556392 0.189028 0.809133
outer loop
vertex 29.999866 39.999718 -1.287717
vertex 20.000002 49.999566 3.252448
vertex 19.999884 39.999638 5.588688
endloop
endfacet
facet normal 0.539740 0.191510 0.819759
outer loop
vertex 19.999884 39.999638 5.588688
vertex 20.000002 49.999566 3.252448
vertex 9.999986 49.999514 9.836606
endloop
endfacet
facet normal 0.539871 0.191695 0.819630
outer loop
vertex 19.999884 39.999638 5.588688
vertex 9.999986 49.999514 9.836606
vertex 9.999894 39.999605 12.175452
endloop
endfacet
facet normal 0.524857 0.193846 0.828824
outer loop
vertex 9.999894 39.999605 12.175452
vertex 9.999986 49.999514 9.836606
vertex -0.000037 49.999512 16.169172
endloop
endfacet
facet normal 0.539915 0.214894 0.813826
outer loop
vertex 9.999894 39.999605 12.175452
vertex -0.000037 49.999512 16.169172
vertex -0.000101 39.999617 18.809724
endloop
endfacet
facet normal 0.526898 0.216990 0.821763
outer loop
vertex -0.000101 39.999617 18.809724
vertex -0.000037 49.999512 16.169172
vertex -10.000067 49.999558 22.580976
endloop
endfacet
facet normal 0.527173 0.217370 0.821485
outer loop
vertex -0.000101 39.999617 18.809724
vertex -10.000067 49.999558 22.580976
vertex -10.000097 39.999669 25.227027
endloop
endfacet
facet normal 0.515514 0.219192 0.828372
outer loop
vertex -10.000097 39.999669 25.227027
vertex -10.000067 49.999558 22.580976
vertex -20.000095 49.999645 28.804189
endloop
endfacet
facet normal 0.452451 0.137244 0.881165
outer loop
vertex -10.000097 39.999669 25.227027
vertex -20.000095 49.999645 28.804189
vertex -20.000082 39.999753 30.361696
endloop
endfacet
facet normal 0.440695 0.138147 0.886963
outer loop
vertex -20.000082 39.999753 30.361696
vertex -20.000095 49.999645 28.804189
vertex -30.000108 49.999762 33.772763
endloop
endfacet
facet normal 0.173574 -0.158003 0.972063
outer loop
vertex -20.000082 39.999753 30.361696
vertex -30.000108 49.999762 33.772763
vertex -30.000039 39.999852 32.147331
endloop
endfacet
facet normal 0.160754 -0.158351 0.974209
outer loop
vertex -30.000039 39.999852 32.147331
vertex -30.000108 49.999762 33.772763
vertex -40.000086 49.999890 35.422881
endloop
endfacet
facet normal -0.351314 -0.589553 0.727327
outer loop
vertex -30.000039 39.999852 32.147331
vertex -40.000086 49.999890 35.422881
vertex -39.999942 39.999942 27.317241
endloop
endfacet
facet normal -0.357628 -0.588046 0.725468
outer loop
vertex -39.999942 39.999942 27.317241
vertex -40.000086 49.999890 35.422881
vertex -50.000000 50.000000 30.493400
endloop
endfacet
endsolid 
