ply
format ascii 1.0
comment PCL generated
element vertex 1359
property float x
property float y
property float z
element face 453
property list uchar int vertex_indices
end_header
99.395 -38.983 -57.336     
96.146 -38.391 -57.127     
96.146 -38.78 -57.336     
99.395 -38.391 -57.033     
96.146 -38.391 -57.127     
99.395 -38.983 -57.336     
96.146 -38.391 -45.774     
97.623 -38.391 -44.724     
96.146 -39.537 -44.724     
97.558 -41.077 -42.622     
99.395 -38.391 -43.662     
99.395 -39.554 -42.622     
96.146 -41.077 -43.606     
99.395 -38.391 -43.662     
97.558 -41.077 -42.622     
96.146 -41.077 -43.606     
97.623 -38.391 -44.724     
99.395 -38.391 -43.662     
96.146 -41.077 -43.606     
96.146 -39.537 -44.724     
97.623 -38.391 -44.724     
97.558 -41.077 -42.622     
99.395 -39.554 -42.622     
99.395 -41.077 -41.516     
99.395 -38.391 -57.033     
99.395 -35.705 -55.6     
96.146 -38.391 -57.127     
96.146 -38.391 -57.127     
99.395 -35.705 -55.6     
96.146 -35.705 -55.752     
96.146 -35.705 -47.978     
97.723 -35.705 -46.826     
96.146 -36.91 -46.826     
97.623 -38.391 -44.724     
99.395 -35.705 -45.832     
99.395 -36.902 -44.724     
96.146 -38.391 -45.774     
99.395 -35.705 -45.832     
97.623 -38.391 -44.724     
96.146 -38.391 -45.774     
97.723 -35.705 -46.826     
99.395 -35.705 -45.832     
96.146 -38.391 -45.774     
96.146 -36.91 -46.826     
97.723 -35.705 -46.826     
97.623 -38.391 -44.724     
99.395 -36.902 -44.724     
99.395 -38.391 -43.662     
96.146 -35.705 -55.752     
99.395 -35.705 -55.6     
99.395 -35 -55.234     
96.146 -34.675 -55.234     
96.146 -35.705 -55.752     
99.395 -35 -55.234     
99.395 -35 -55.234     
96.146 -33.019 -54.405     
96.146 -34.675 -55.234     
99.395 -33.019 -54.221     
96.146 -33.019 -54.405     
99.395 -35 -55.234     
96.146 -33.019 -47.913     
97.723 -35.705 -46.826     
96.146 -35.705 -47.978     
97.574 -33.019 -46.826     
97.723 -35.705 -46.826     
96.146 -33.019 -47.913     
97.723 -35.705 -46.826     
97.574 -33.019 -46.826     
99.395 -33.019 -45.762     
99.395 -35.705 -45.832     
97.723 -35.705 -46.826     
99.395 -33.019 -45.762     
96.146 -33.019 -54.405     
99.395 -33.019 -54.221     
99.395 -30.886 -53.132     
96.146 -30.658 -53.132     
96.146 -33.019 -54.405     
99.395 -30.886 -53.132     
99.395 -30.886 -53.132     
96.146 -30.333 -52.961     
96.146 -30.658 -53.132     
99.395 -30.333 -52.841     
96.146 -30.333 -52.961     
99.395 -30.886 -53.132     
96.146 -30.333 -50.335     
97.777 -30.333 -48.928     
96.146 -31.477 -48.928     
97.574 -33.019 -46.826     
99.395 -30.333 -48.002     
99.395 -31.423 -46.826     
96.146 -33.019 -47.913     
99.395 -30.333 -48.002     
97.574 -33.019 -46.826     
96.146 -33.019 -47.913     
97.777 -30.333 -48.928     
99.395 -30.333 -48.002     
96.146 -33.019 -47.913     
96.146 -31.477 -48.928     
97.777 -30.333 -48.928     
97.574 -33.019 -46.826     
99.395 -31.423 -46.826     
99.395 -33.019 -45.762     
96.146 -27.647 -53.593     
96.146 -29.939 -53.132     
97.449 -27.647 -53.132     
96.146 -28.14 -51.03     
96.146 -27.647 -51.669     
97.708 -27.647 -51.03     
96.146 -29.939 -53.132     
96.146 -30.333 -52.961     
97.449 -27.647 -53.132     
96.146 -30.333 -52.961     
99.395 -27.647 -51.535     
97.449 -27.647 -53.132     
96.146 -30.333 -52.961     
99.395 -30.333 -52.841     
99.395 -27.647 -51.535     
96.146 -28.14 -51.03     
97.777 -30.333 -48.928     
96.146 -30.333 -50.335     
96.146 -28.14 -51.03     
97.708 -27.647 -51.03     
97.777 -30.333 -48.928     
97.708 -27.647 -51.03     
97.26 -27.647 -48.928     
97.777 -30.333 -48.928     
97.777 -30.333 -48.928     
97.26 -27.647 -48.928     
99.395 -27.647 -47.883     
99.395 -30.333 -48.002     
97.777 -30.333 -48.928     
99.395 -27.647 -47.883     
96.146 -27.647 -43.326     
96.146 -27.795 -42.622     
96.405 -27.647 -42.622     
96.405 -27.647 -42.622     
96.146 -27.795 -42.622     
96.146 -27.647 -42.206     
97.715 -24.961 -55.234     
97.664 -24.961 -57.336     
96.146 -26.359 -57.336     
96.146 -26.489 -55.234     
97.715 -24.961 -55.234     
96.146 -26.359 -57.336     
97.449 -27.647 -53.132     
99.395 -26.665 -53.132     
99.395 -24.961 -53.847     
96.146 -27.647 -53.593     
97.449 -27.647 -53.132     
99.395 -24.961 -53.847     
96.146 -27.647 -53.593     
99.395 -24.961 -53.847     
97.715 -24.961 -55.234     
96.146 -27.647 -53.593     
97.715 -24.961 -55.234     
96.146 -26.489 -55.234     
99.395 -27.647 -51.535     
99.395 -26.665 -53.132     
97.449 -27.647 -53.132     
97.708 -27.647 -51.03     
96.146 -27.647 -51.669     
96.146 -26.954 -51.03     
96.146 -26.253 -48.928     
97.708 -27.647 -51.03     
96.146 -26.954 -51.03     
96.146 -26.253 -48.928     
97.26 -27.647 -48.928     
97.708 -27.647 -51.03     
99.395 -25.644 -48.928     
98.051 -24.961 -48.928     
99.395 -24.961 -49.85     
96.146 -26.253 -48.928     
96.146 -26.813 -46.826     
99.395 -27.647 -47.883     
96.146 -26.253 -48.928     
99.395 -27.647 -47.883     
97.26 -27.647 -48.928     
96.146 -26.813 -46.826     
98.962 -24.961 -46.826     
99.395 -27.647 -47.883     
99.395 -25.644 -48.928     
99.395 -27.647 -47.883     
98.051 -24.961 -48.928     
98.962 -24.961 -46.826     
98.051 -24.961 -48.928     
99.395 -27.647 -47.883     
99.395 -24.961 -46.274     
98.962 -24.961 -46.826     
96.146 -26.813 -46.826     
99.395 -24.961 -46.274     
96.146 -26.813 -46.826     
99.395 -25.724 -44.724     
99.395 -25.724 -44.724     
96.146 -26.813 -46.826     
96.146 -27.355 -44.724     
96.405 -27.647 -42.622     
96.146 -27.355 -44.724     
96.146 -27.647 -43.326     
96.405 -27.647 -42.622     
99.395 -25.974 -42.622     
96.146 -27.355 -44.724     
99.395 -25.974 -42.622     
99.395 -25.724 -44.724     
96.146 -27.355 -44.724     
96.146 -27.647 -42.206     
99.395 -25.974 -42.622     
96.405 -27.647 -42.622     
96.146 -27.647 -42.206     
96.146 -27.075 -40.52     
99.395 -25.974 -42.622     
96.146 -27.075 -40.52     
99.395 -25.376 -40.52     
99.395 -25.974 -42.622     
97.715 -24.961 -55.234     
99.395 -23.694 -57.336     
97.664 -24.961 -57.336     
97.715 -24.961 -55.234     
99.395 -23.769 -55.234     
99.395 -23.694 -57.336     
97.808 -22.275 -55.234     
96.146 -23.844 -55.234     
96.146 -22.275 -56.16     
96.146 -23.844 -55.234     
97.791 -22.275 -53.132     
96.146 -23.888 -53.132     
96.146 -23.844 -55.234     
97.808 -22.275 -55.234     
97.791 -22.275 -53.132     
99.395 -23.769 -55.234     
97.715 -24.961 -55.234     
99.395 -24.961 -53.847     
97.791 -22.275 -53.132     
96.146 -22.275 -51.96     
96.146 -23.888 -53.132     
99.395 -24.961 -49.85     
98.051 -24.961 -48.928     
99.395 -24.147 -48.928     
99.395 -24.147 -48.928     
98.962 -24.961 -46.826     
99.395 -24.696 -46.826     
98.051 -24.961 -48.928     
98.962 -24.961 -46.826     
99.395 -24.147 -48.928     
98.962 -24.961 -46.826     
99.395 -24.961 -46.274     
99.395 -24.696 -46.826     
96.146 -21.069 -57.336     
97.808 -22.275 -55.234     
96.146 -22.275 -56.16     
96.146 -21.069 -57.336     
97.794 -19.589 -57.336     
97.808 -22.275 -55.234     
97.794 -19.589 -57.336     
97.782 -19.589 -55.234     
97.808 -22.275 -55.234     
96.146 -21.188 -53.132     
97.782 -19.589 -55.234     
96.146 -19.589 -54.091     
96.146 -21.188 -53.132     
97.791 -22.275 -53.132     
97.782 -19.589 -55.234     
97.791 -22.275 -53.132     
97.808 -22.275 -55.234     
97.782 -19.589 -55.234     
97.791 -22.275 -53.132     
96.146 -21.188 -53.132     
96.146 -22.275 -51.96     
102.64 -39.278 -57.336     
99.395 -38.391 -57.033     
99.395 -38.983 -57.336     
102.64 -38.391 -56.841     
99.395 -38.391 -57.033     
102.64 -39.278 -57.336     
99.395 -38.391 -43.662     
100.88 -38.391 -42.622     
99.395 -39.554 -42.622     
99.395 -39.554 -42.622     
100.88 -38.391 -42.622     
102.64 -38.391 -41.586     
99.395 -39.554 -42.622     
102.64 -38.391 -41.586     
99.395 -41.077 -41.516     
99.395 -41.077 -41.516     
102.64 -38.391 -41.586     
102.64 -41.077 -41.58     
102.64 -38.391 -56.841     
102.64 -35.705 -55.48     
99.395 -38.391 -57.033     
99.395 -38.391 -57.033     
102.64 -35.705 -55.48     
99.395 -35.705 -55.6     
99.395 -35.705 -45.832     
100.95 -35.705 -44.724     
99.395 -36.902 -44.724     
100.88 -38.391 -42.622     
102.64 -35.705 -43.702     
102.64 -36.897 -42.622     
99.395 -38.391 -43.662     
102.64 -35.705 -43.702     
100.88 -38.391 -42.622     
99.395 -38.391 -43.662     
100.95 -35.705 -44.724     
102.64 -35.705 -43.702     
99.395 -38.391 -43.662     
99.395 -36.902 -44.724     
100.95 -35.705 -44.724     
100.88 -38.391 -42.622     
102.64 -36.897 -42.622     
102.64 -38.391 -41.586     
99.395 -35.705 -55.6     
102.64 -35.705 -55.48     
102.64 -35.224 -55.234     
99.395 -35 -55.234     
99.395 -35.705 -55.6     
102.64 -35.224 -55.234     
102.64 -35.224 -55.234     
99.395 -33.019 -54.221     
99.395 -35 -55.234     
102.64 -33.019 -54.08     
99.395 -33.019 -54.221     
102.64 -35.224 -55.234     
100.95 -35.705 -44.724     
102.64 -33.019 -45.883     
102.64 -34.237 -44.724     
100.95 -35.705 -44.724     
99.395 -35.705 -45.832     
102.64 -33.019 -45.883     
99.395 -35.705 -45.832     
99.395 -33.019 -45.762     
102.64 -33.019 -45.883     
100.95 -35.705 -44.724     
102.64 -34.237 -44.724     
102.64 -35.705 -43.702     
99.395 -33.019 -54.221     
102.64 -33.019 -54.08     
102.64 -31.141 -53.132     
99.395 -30.886 -53.132     
99.395 -33.019 -54.221     
102.64 -31.141 -53.132     
102.64 -31.141 -53.132     
99.395 -30.333 -52.841     
99.395 -30.886 -53.132     
102.64 -30.333 -52.723     
99.395 -30.333 -52.841     
102.64 -31.141 -53.132     
99.395 -30.333 -48.002     
100.9 -30.333 -46.826     
99.395 -31.423 -46.826     
99.395 -31.423 -46.826     
100.9 -30.333 -46.826     
102.64 -30.333 -45.809     
99.395 -31.423 -46.826     
102.64 -30.333 -45.809     
99.395 -33.019 -45.762     
99.395 -33.019 -45.762     
102.64 -30.333 -45.809     
102.64 -33.019 -45.883     
102.64 -30.333 -52.723     
102.64 -27.647 -51.338     
99.395 -30.333 -52.841     
99.395 -30.333 -52.841     
102.64 -27.647 -51.338     
99.395 -27.647 -51.535     
100.9 -30.333 -46.826     
102.64 -27.647 -48.114     
102.64 -28.723 -46.826     
100.9 -30.333 -46.826     
99.395 -30.333 -48.002     
102.64 -27.647 -48.114     
99.395 -30.333 -48.002     
99.395 -27.647 -47.883     
102.64 -27.647 -48.114     
100.9 -30.333 -46.826     
102.64 -28.723 -46.826     
102.64 -30.333 -45.809     
99.395 -24.961 -53.847     
99.395 -26.665 -53.132     
100.89 -24.961 -53.132     
99.395 -26.665 -53.132     
99.395 -27.647 -51.535     
102.64 -27.647 -51.338     
99.395 -26.665 -53.132     
102.64 -27.647 -51.338     
101.43 -24.961 -51.03     
99.395 -26.665 -53.132     
101.43 -24.961 -51.03     
100.89 -24.961 -53.132     
101.43 -24.961 -51.03     
102.64 -27.647 -51.338     
102.64 -26.779 -51.03     
101.43 -24.961 -51.03     
102.64 -26.779 -51.03     
102.64 -24.961 -50.226     
99.395 -24.961 -49.85     
100.84 -24.961 -48.928     
99.395 -25.644 -48.928     
99.395 -25.644 -48.928     
100.84 -24.961 -48.928     
102.64 -24.961 -48.298     
99.395 -25.644 -48.928     
102.64 -24.961 -48.298     
99.395 -27.647 -47.883     
99.395 -27.647 -47.883     
102.64 -24.961 -48.298     
102.64 -27.647 -48.114     
99.395 -24.961 -46.274     
99.395 -25.724 -44.724     
100.61 -24.961 -44.724     
101.3 -24.961 -42.622     
100.61 -24.961 -44.724     
99.395 -25.724 -44.724     
99.395 -25.974 -42.622     
101.3 -24.961 -42.622     
99.395 -25.724 -44.724     
100.45 -24.961 -40.52     
101.3 -24.961 -42.622     
99.395 -25.974 -42.622     
99.395 -25.376 -40.52     
100.45 -24.961 -40.52     
99.395 -25.974 -42.622     
101.06 -22.275 -55.234     
100.95 -22.275 -57.336     
99.395 -23.694 -57.336     
99.395 -23.769 -55.234     
101.06 -22.275 -55.234     
99.395 -23.694 -57.336     
99.395 -23.769 -55.234     
99.395 -24.961 -53.847     
100.89 -24.961 -53.132     
99.395 -23.769 -55.234     
100.89 -24.961 -53.132     
101.06 -22.275 -55.234     
101.06 -22.275 -55.234     
100.89 -24.961 -53.132     
101.1 -22.275 -53.132     
100.89 -24.961 -53.132     
101.43 -24.961 -51.03     
101.1 -22.275 -53.132     
101.1 -22.275 -53.132     
101.43 -24.961 -51.03     
101.06 -22.275 -51.03     
99.395 -24.961 -49.85     
99.395 -24.147 -48.928     
100.84 -24.961 -48.928     
101.43 -24.961 -51.03     
102.64 -24.961 -50.226     
101.58 -22.275 -48.928     
101.43 -24.961 -51.03     
101.58 -22.275 -48.928     
101.06 -22.275 -51.03     
101.58 -22.275 -48.928     
102.64 -24.961 -50.226     
102.64 -23.545 -48.928     
101.58 -22.275 -48.928     
102.64 -23.545 -48.928     
102.64 -22.275 -47.328     
100.84 -24.961 -48.928     
99.395 -24.147 -48.928     
102.64 -24.961 -48.298     
99.395 -24.147 -48.928     
102.64 -22.564 -46.826     
102.64 -24.961 -48.298     
99.395 -24.147 -48.928     
99.395 -24.696 -46.826     
102.64 -22.564 -46.826     
100.61 -24.961 -44.724     
99.395 -24.696 -46.826     
99.395 -24.961 -46.274     
100.61 -24.961 -44.724     
102.64 -23.356 -44.724     
99.395 -24.696 -46.826     
102.64 -23.356 -44.724     
102.64 -22.564 -46.826     
99.395 -24.696 -46.826     
102.64 -23.356 -44.724     
101.3 -24.961 -42.622     
102.64 -24.163 -42.622     
100.61 -24.961 -44.724     
101.3 -24.961 -42.622     
102.64 -23.356 -44.724     
102.64 -24.163 -42.622     
100.45 -24.961 -40.52     
102.64 -24.122 -40.52     
101.3 -24.961 -42.622     
100.45 -24.961 -40.52     
102.64 -24.163 -42.622     
100.95 -22.275 -57.336     
101.06 -22.275 -55.234     
101.08 -19.589 -57.336     
101.08 -19.589 -57.336     
101.06 -22.275 -55.234     
101.1 -19.589 -55.234     
101.06 -22.275 -55.234     
101.1 -22.275 -53.132     
101.1 -19.589 -55.234     
101.1 -19.589 -55.234     
101.1 -22.275 -53.132     
100.98 -19.589 -53.132     
101.1 -22.275 -53.132     
101.06 -22.275 -51.03     
100.98 -19.589 -53.132     
100.98 -19.589 -53.132     
101.06 -22.275 -51.03     
101.12 -19.589 -51.03     
102.64 -19.589 -49.828     
101.58 -22.275 -48.928     
102.64 -21.712 -48.928     
102.64 -19.589 -49.828     
101.12 -19.589 -51.03     
101.58 -22.275 -48.928     
101.12 -19.589 -51.03     
101.06 -22.275 -51.03     
101.58 -22.275 -48.928     
101.58 -22.275 -48.928     
102.64 -22.275 -47.328     
102.64 -21.712 -48.928     
105.89 -39.329 -57.336     
102.64 -38.391 -56.841     
102.64 -39.278 -57.336     
105.89 -38.391 -56.835     
102.64 -38.391 -56.841     
105.89 -39.329 -57.336     
104.18 -41.077 -40.52     
105.89 -38.391 -41.619     
105.89 -39.648 -40.52     
104.18 -41.077 -40.52     
102.64 -41.077 -41.58     
105.89 -38.391 -41.619     
102.64 -41.077 -41.58     
102.64 -38.391 -41.586     
105.89 -38.391 -41.619     
105.89 -38.391 -56.835     
105.89 -35.705 -55.439     
102.64 -38.391 -56.841     
102.64 -38.391 -56.841     
105.89 -35.705 -55.439     
102.64 -35.705 -55.48     
102.64 -35.705 -43.702     
104.17 -35.705 -42.622     
102.64 -36.897 -42.622     
102.64 -36.897 -42.622     
104.17 -35.705 -42.622     
105.89 -35.705 -41.577     
102.64 -36.897 -42.622     
105.89 -35.705 -41.577     
102.64 -38.391 -41.586     
102.64 -38.391 -41.586     
105.89 -35.705 -41.577     
105.89 -38.391 -41.619     
102.64 -35.705 -55.48     
105.89 -35.705 -55.439     
105.89 -35.303 -55.234     
102.64 -35.224 -55.234     
102.64 -35.705 -55.48     
105.89 -35.303 -55.234     
105.89 -35.303 -55.234     
102.64 -33.019 -54.08     
102.64 -35.224 -55.234     
105.89 -33.019 -54.03     
102.64 -33.019 -54.08     
105.89 -35.303 -55.234     
102.64 -33.019 -45.883     
104.23 -33.019 -44.724     
102.64 -34.237 -44.724     
104.17 -35.705 -42.622     
105.89 -33.019 -43.731     
105.89 -34.225 -42.622     
102.64 -35.705 -43.702     
105.89 -33.019 -43.731     
104.17 -35.705 -42.622     
102.64 -35.705 -43.702     
104.23 -33.019 -44.724     
105.89 -33.019 -43.731     
102.64 -35.705 -43.702     
102.64 -34.237 -44.724     
104.23 -33.019 -44.724     
104.17 -35.705 -42.622     
105.89 -34.225 -42.622     
105.89 -35.705 -41.577     
102.64 -33.019 -54.08     
105.89 -33.019 -54.03     
105.89 -31.279 -53.132     
102.64 -31.141 -53.132     
102.64 -33.019 -54.08     
105.89 -31.279 -53.132     
105.89 -31.279 -53.132     
102.64 -30.333 -52.723     
102.64 -31.141 -53.132     
105.89 -30.333 -52.65     
102.64 -30.333 -52.723     
105.89 -31.279 -53.132     
102.64 -30.333 -45.809     
104.23 -33.019 -44.724     
102.64 -33.019 -45.883     
104.09 -30.333 -44.724     
104.23 -33.019 -44.724     
102.64 -30.333 -45.809     
104.23 -33.019 -44.724     
104.09 -30.333 -44.724     
105.89 -30.333 -43.666     
105.89 -33.019 -43.731     
104.23 -33.019 -44.724     
105.89 -30.333 -43.666     
105.89 -30.333 -52.65     
105.89 -27.647 -51.204     
102.64 -30.333 -52.723     
102.64 -30.333 -52.723     
105.89 -27.647 -51.204     
102.64 -27.647 -51.338     
102.64 -27.647 -48.114     
104.18 -27.647 -46.826     
102.64 -28.723 -46.826     
104.09 -30.333 -44.724     
105.89 -27.647 -45.911     
105.89 -28.772 -44.724     
102.64 -30.333 -45.809     
105.89 -27.647 -45.911     
104.09 -30.333 -44.724     
102.64 -30.333 -45.809     
104.18 -27.647 -46.826     
105.89 -27.647 -45.911     
102.64 -30.333 -45.809     
102.64 -28.723 -46.826     
104.18 -27.647 -46.826     
104.09 -30.333 -44.724     
105.89 -28.772 -44.724     
105.89 -30.333 -43.666     
102.64 -27.647 -51.338     
105.89 -27.647 -51.204     
105.89 -27.315 -51.03     
102.64 -26.779 -51.03     
102.64 -27.647 -51.338     
105.89 -27.315 -51.03     
105.89 -27.315 -51.03     
102.64 -24.961 -50.226     
102.64 -26.779 -51.03     
105.89 -24.961 -49.84     
102.64 -24.961 -50.226     
105.89 -27.315 -51.03     
102.64 -24.961 -48.298     
104.18 -27.647 -46.826     
102.64 -27.647 -48.114     
104.11 -24.961 -46.826     
104.18 -27.647 -46.826     
102.64 -24.961 -48.298     
104.18 -27.647 -46.826     
104.11 -24.961 -46.826     
105.89 -24.961 -45.834     
105.89 -27.647 -45.911     
104.18 -27.647 -46.826     
105.89 -24.961 -45.834     
102.64 -24.961 -50.226     
105.89 -24.961 -49.84     
105.89 -23.131 -48.928     
102.64 -23.545 -48.928     
102.64 -24.961 -50.226     
105.89 -23.131 -48.928     
104.11 -24.961 -46.826     
102.64 -24.961 -48.298     
102.64 -22.564 -46.826     
105.89 -23.103 -46.826     
103.23 -22.275 -46.826     
102.64 -23.545 -48.928     
105.89 -23.103 -46.826     
102.64 -23.545 -48.928     
105.89 -23.131 -48.928     
102.64 -23.545 -48.928     
103.23 -22.275 -46.826     
102.64 -22.275 -47.328     
102.64 -22.564 -46.826     
102.64 -23.356 -44.724     
105.89 -24.961 -45.834     
102.64 -22.564 -46.826     
105.89 -24.961 -45.834     
104.11 -24.961 -46.826     
102.64 -23.356 -44.724     
104.45 -22.275 -44.724     
105.89 -24.961 -45.834     
105.89 -23.103 -46.826     
105.89 -24.961 -45.834     
103.23 -22.275 -46.826     
104.45 -22.275 -44.724     
103.23 -22.275 -46.826     
105.89 -24.961 -45.834     
105.77 -22.275 -42.622     
104.45 -22.275 -44.724     
102.64 -23.356 -44.724     
102.64 -24.163 -42.622     
105.77 -22.275 -42.622     
102.64 -23.356 -44.724     
105.54 -22.275 -40.52     
105.77 -22.275 -42.622     
102.64 -24.163 -42.622     
102.64 -24.122 -40.52     
105.54 -22.275 -40.52     
102.64 -24.163 -42.622     
102.64 -19.589 -49.828     
102.64 -21.712 -48.928     
104.62 -19.589 -48.928     
103.23 -22.275 -46.826     
105.89 -20.919 -46.826     
105.89 -19.589 -47.593     
102.64 -22.275 -47.328     
103.23 -22.275 -46.826     
105.89 -19.589 -47.593     
102.64 -22.275 -47.328     
105.89 -19.589 -47.593     
104.62 -19.589 -48.928     
102.64 -22.275 -47.328     
104.62 -19.589 -48.928     
102.64 -21.712 -48.928     
105.89 -20.919 -46.826     
104.45 -22.275 -44.724     
105.89 -21.194 -44.724     
103.23 -22.275 -46.826     
104.45 -22.275 -44.724     
105.89 -20.919 -46.826     
105.89 -21.194 -44.724     
105.77 -22.275 -42.622     
105.89 -22.206 -42.622     
104.45 -22.275 -44.724     
105.77 -22.275 -42.622     
105.89 -21.194 -44.724     
105.89 -22.206 -42.622     
105.54 -22.275 -40.52     
105.89 -22.057 -40.52     
105.77 -22.275 -42.622     
105.54 -22.275 -40.52     
105.89 -22.206 -42.622     
109.14 -39.664 -57.336     
105.89 -38.391 -56.835     
105.89 -39.329 -57.336     
109.14 -38.391 -56.687     
105.89 -38.391 -56.835     
109.14 -39.664 -57.336     
105.89 -38.391 -41.619     
107.49 -38.391 -40.52     
105.89 -39.648 -40.52     
109.14 -38.391 -56.687     
109.14 -35.705 -55.334     
105.89 -38.391 -56.835     
105.89 -38.391 -56.835     
109.14 -35.705 -55.334     
105.89 -35.705 -55.439     
105.89 -35.705 -41.577     
107.49 -38.391 -40.52     
105.89 -38.391 -41.619     
107.41 -35.705 -40.52     
107.49 -38.391 -40.52     
105.89 -35.705 -41.577     
105.89 -35.705 -55.439     
109.14 -35.705 -55.334     
109.14 -35.517 -55.234     
105.89 -35.303 -55.234     
105.89 -35.705 -55.439     
109.14 -35.517 -55.234     
109.14 -35.517 -55.234     
105.89 -33.019 -54.03     
105.89 -35.303 -55.234     
109.14 -33.019 -53.891     
105.89 -33.019 -54.03     
109.14 -35.517 -55.234     
105.89 -33.019 -43.731     
107.46 -33.019 -42.622     
105.89 -34.225 -42.622     
107.41 -35.705 -40.52     
109.14 -33.019 -41.62     
109.14 -34.244 -40.52     
105.89 -35.705 -41.577     
109.14 -33.019 -41.62     
107.41 -35.705 -40.52     
105.89 -35.705 -41.577     
107.46 -33.019 -42.622     
109.14 -33.019 -41.62     
105.89 -35.705 -41.577     
105.89 -34.225 -42.622     
107.46 -33.019 -42.622     
105.89 -33.019 -54.03     
109.14 -33.019 -53.891     
109.14 -31.628 -53.132     
105.89 -31.279 -53.132     
105.89 -33.019 -54.03     
109.14 -31.628 -53.132     
109.14 -31.628 -53.132     
105.89 -30.333 -52.65     
105.89 -31.279 -53.132     
109.14 -30.333 -52.433     
105.89 -30.333 -52.65     
109.14 -31.628 -53.132     
107.46 -33.019 -42.622     
109.14 -30.333 -43.787     
109.14 -31.579 -42.622     
107.46 -33.019 -42.622     
105.89 -33.019 -43.731     
109.14 -30.333 -43.787     
105.89 -33.019 -43.731     
105.89 -30.333 -43.666     
109.14 -30.333 -43.787     
107.46 -33.019 -42.622     
109.14 -31.579 -42.622     
109.14 -33.019 -41.62     
109.14 -30.333 -52.433     
109.14 -27.647 -51.138     
105.89 -30.333 -52.65     
105.89 -30.333 -52.65     
109.14 -27.647 -51.138     
105.89 -27.647 -51.204     
105.89 -27.647 -45.911     
107.43 -27.647 -44.724     
105.89 -28.772 -44.724     
105.89 -28.772 -44.724     
107.43 -27.647 -44.724     
109.14 -27.647 -43.728     
105.89 -28.772 -44.724     
109.14 -27.647 -43.728     
105.89 -30.333 -43.666     
105.89 -30.333 -43.666     
109.14 -27.647 -43.728     
109.14 -30.333 -43.787     
105.89 -27.647 -51.204     
109.14 -27.647 -51.138     
109.14 -27.445 -51.03     
105.89 -27.315 -51.03     
105.89 -27.647 -51.204     
109.14 -27.445 -51.03     
109.14 -27.445 -51.03     
105.89 -24.961 -49.84     
105.89 -27.315 -51.03     
109.14 -24.961 -49.694     
105.89 -24.961 -49.84     
109.14 -27.445 -51.03     
105.89 -24.961 -45.834     
107.43 -27.647 -44.724     
105.89 -27.647 -45.911     
107.2 -24.961 -44.724     
107.43 -27.647 -44.724     
105.89 -24.961 -45.834     
107.43 -27.647 -44.724     
107.2 -24.961 -44.724     
109.14 -24.961 -43.626     
109.14 -27.647 -43.728     
107.43 -27.647 -44.724     
109.14 -24.961 -43.626     
105.89 -24.961 -49.84     
109.14 -24.961 -49.694     
109.14 -23.306 -48.928     
105.89 -23.131 -48.928     
105.89 -24.961 -49.84     
109.14 -23.306 -48.928     
107.43 -22.275 -46.826     
109.14 -23.306 -48.928     
109.14 -22.275 -48.424     
107.43 -22.275 -46.826     
105.89 -23.103 -46.826     
109.14 -23.306 -48.928     
105.89 -23.103 -46.826     
105.89 -23.131 -48.928     
109.14 -23.306 -48.928     
105.89 -23.103 -46.826     
107.2 -24.961 -44.724     
105.89 -24.961 -45.834     
105.89 -23.103 -46.826     
107.43 -22.275 -46.826     
107.2 -24.961 -44.724     
107.43 -22.275 -46.826     
106.42 -22.275 -44.724     
107.2 -24.961 -44.724     
107.2 -24.961 -44.724     
106.42 -22.275 -44.724     
109.14 -22.275 -43.434     
109.14 -24.961 -43.626     
107.2 -24.961 -44.724     
109.14 -22.275 -43.434     
105.89 -20.919 -46.826     
107.43 -22.275 -46.826     
109.14 -22.275 -48.424     
105.89 -20.919 -46.826     
109.14 -22.275 -48.424     
105.89 -19.589 -47.593     
105.89 -19.589 -47.593     
109.14 -22.275 -48.424     
109.14 -19.589 -46.835     
105.89 -21.194 -44.724     
107.43 -22.275 -46.826     
105.89 -20.919 -46.826     
105.89 -21.194 -44.724     
106.42 -22.275 -44.724     
107.43 -22.275 -46.826     
109.14 -20.178 -44.724     
107.54 -19.589 -44.724     
109.14 -19.589 -46.808     
107.54 -19.589 -44.724     
109.14 -20.178 -44.724     
109.14 -19.589 -42.91     
106.42 -22.275 -44.724     
105.89 -21.194 -44.724     
109.14 -22.275 -43.434     
105.89 -21.194 -44.724     
109.14 -19.766 -42.622     
109.14 -22.275 -43.434     
105.89 -21.194 -44.724     
105.89 -22.206 -42.622     
109.14 -19.766 -42.622     
109.14 -19.766 -42.622     
105.89 -22.206 -42.622     
109.14 -19.825 -40.52     
109.14 -19.825 -40.52     
105.89 -22.206 -42.622     
105.89 -22.057 -40.52     
112.39 -39.799 -57.336     
109.14 -38.391 -56.687     
109.14 -39.664 -57.336     
112.39 -38.391 -56.609     
109.14 -38.391 -56.687     
112.39 -39.799 -57.336     
112.39 -35.827 -55.234     
111.11 -35.705 -55.234     
109.14 -35.705 -55.334     
112.39 -35.827 -55.234     
109.14 -35.705 -55.334     
112.39 -38.391 -56.609     
112.39 -38.391 -56.609     
109.14 -35.705 -55.334     
109.14 -38.391 -56.687     
112.39 -35.827 -55.234     
112.39 -35.705 -55.168     
111.11 -35.705 -55.234     
109.14 -35.705 -55.334     
111.11 -35.705 -55.234     
109.14 -35.517 -55.234     
111.11 -35.705 -55.234     
109.14 -33.019 -53.891     
109.14 -35.517 -55.234     
111.11 -35.705 -55.234     
112.39 -35.705 -55.168     
109.14 -33.019 -53.891     
112.39 -35.705 -55.168     
112.39 -33.019 -53.746     
109.14 -33.019 -53.891     
109.14 -33.019 -41.62     
110.71 -33.019 -40.52     
109.14 -34.244 -40.52     
109.14 -33.019 -53.891     
112.39 -33.019 -53.746     
112.39 -31.757 -53.132     
109.14 -31.628 -53.132     
109.14 -33.019 -53.891     
112.39 -31.757 -53.132     
112.39 -31.757 -53.132     
109.14 -30.333 -52.433     
109.14 -31.628 -53.132     
112.39 -30.333 -52.452     
109.14 -30.333 -52.433     
112.39 -31.757 -53.132     
109.14 -30.333 -43.787     
110.76 -30.333 -42.622     
109.14 -31.579 -42.622     
110.71 -33.019 -40.52     
112.39 -30.333 -41.663     
112.39 -31.587 -40.52     
109.14 -33.019 -41.62     
112.39 -30.333 -41.663     
110.71 -33.019 -40.52     
109.14 -33.019 -41.62     
110.76 -30.333 -42.622     
112.39 -30.333 -41.663     
109.14 -33.019 -41.62     
109.14 -31.579 -42.622     
110.76 -30.333 -42.622     
112.39 -30.333 -52.452     
112.39 -27.647 -51.059     
109.14 -30.333 -52.433     
109.14 -30.333 -52.433     
112.39 -27.647 -51.059     
109.14 -27.647 -51.138     
109.14 -27.647 -43.728     
110.76 -30.333 -42.622     
109.14 -30.333 -43.787     
110.63 -27.647 -42.622     
110.76 -30.333 -42.622     
109.14 -27.647 -43.728     
110.76 -30.333 -42.622     
110.63 -27.647 -42.622     
112.39 -27.647 -41.614     
112.39 -30.333 -41.663     
110.76 -30.333 -42.622     
112.39 -27.647 -41.614     
109.14 -27.647 -51.138     
112.39 -27.647 -51.059     
112.39 -27.593 -51.03     
109.14 -27.445 -51.03     
109.14 -27.647 -51.138     
112.39 -27.593 -51.03     
112.39 -27.593 -51.03     
109.14 -24.961 -49.694     
109.14 -27.445 -51.03     
112.39 -24.961 -49.616     
109.14 -24.961 -49.694     
112.39 -27.593 -51.03     
110.63 -27.647 -42.622     
112.39 -24.961 -43.842     
112.39 -26.155 -42.622     
110.63 -27.647 -42.622     
109.14 -27.647 -43.728     
112.39 -24.961 -43.842     
109.14 -27.647 -43.728     
109.14 -24.961 -43.626     
112.39 -24.961 -43.842     
110.63 -27.647 -42.622     
112.39 -26.155 -42.622     
112.39 -27.647 -41.614     
109.14 -24.961 -49.694     
112.39 -24.961 -49.616     
112.39 -23.682 -48.928     
109.14 -23.306 -48.928     
109.14 -24.961 -49.694     
112.39 -23.682 -48.928     
112.39 -23.682 -48.928     
109.14 -22.275 -48.424     
109.14 -23.306 -48.928     
112.39 -22.275 -48.189     
109.14 -22.275 -48.424     
112.39 -23.682 -48.928     
112.39 -24.961 -43.842     
109.14 -24.961 -43.626     
112.39 -22.275 -43.795     
109.14 -24.961 -43.626     
109.14 -22.275 -43.434     
112.39 -22.275 -43.795     
112.39 -22.275 -48.189     
112.39 -19.589 -46.972     
109.14 -22.275 -48.424     
109.14 -22.275 -48.424     
112.39 -19.589 -46.972     
109.14 -19.589 -46.835     
109.14 -19.589 -46.808     
110.18 -19.589 -44.724     
109.14 -20.178 -44.724     
109.14 -20.178 -44.724     
110.18 -19.589 -44.724     
109.14 -19.589 -42.91     
109.14 -22.275 -43.434     
109.14 -19.766 -42.622     
112.39 -19.589 -43.472     
109.14 -22.275 -43.434     
112.39 -19.589 -43.472     
112.39 -22.275 -43.795     
112.39 -19.589 -43.472     
109.14 -19.766 -42.622     
109.46 -19.589 -42.622     
109.57 -19.589 -40.52     
109.46 -19.589 -42.622     
109.14 -19.766 -42.622     
109.14 -19.825 -40.52     
109.57 -19.589 -40.52     
109.14 -19.766 -42.622     
115.64 -40.019 -57.336     
112.39 -38.391 -56.609     
112.39 -39.799 -57.336     
115.64 -38.391 -56.569     
112.39 -38.391 -56.609     
115.64 -40.019 -57.336     
112.39 -38.391 -56.609     
115.64 -38.391 -56.569     
115.64 -35.957 -55.234     
112.39 -35.827 -55.234     
112.39 -38.391 -56.609     
115.64 -35.957 -55.234     
115.64 -35.957 -55.234     
112.39 -35.705 -55.168     
112.39 -35.827 -55.234     
115.64 -35.705 -55.095     
112.39 -35.705 -55.168     
115.64 -35.957 -55.234     
115.64 -35.705 -55.095     
115.64 -33.019 -53.685     
112.39 -35.705 -55.168     
112.39 -35.705 -55.168     
115.64 -33.019 -53.685     
112.39 -33.019 -53.746     
112.39 -33.019 -53.746     
115.64 -33.019 -53.685     
115.64 -31.926 -53.132     
112.39 -31.757 -53.132     
112.39 -33.019 -53.746     
115.64 -31.926 -53.132     
115.64 -31.926 -53.132     
112.39 -30.333 -52.452     
112.39 -31.757 -53.132     
115.64 -30.333 -52.327     
112.39 -30.333 -52.452     
115.64 -31.926 -53.132     
112.39 -30.333 -41.663     
114.01 -30.333 -40.52     
112.39 -31.587 -40.52     
115.64 -27.893 -51.03     
112.98 -27.647 -51.03     
112.39 -27.647 -51.059     
115.64 -27.893 -51.03     
112.39 -27.647 -51.059     
115.64 -30.333 -52.327     
115.64 -30.333 -52.327     
112.39 -27.647 -51.059     
112.39 -30.333 -52.452     
115.64 -27.893 -51.03     
115.64 -27.647 -50.903     
112.98 -27.647 -51.03     
112.39 -27.647 -41.614     
114.01 -30.333 -40.52     
112.39 -30.333 -41.663     
113.91 -27.647 -40.52     
114.01 -30.333 -40.52     
112.39 -27.647 -41.614     
112.39 -27.647 -51.059     
112.98 -27.647 -51.03     
112.39 -27.593 -51.03     
112.98 -27.647 -51.03     
112.39 -24.961 -49.616     
112.39 -27.593 -51.03     
112.98 -27.647 -51.03     
115.64 -27.647 -50.903     
112.39 -24.961 -49.616     
115.64 -27.647 -50.903     
115.64 -24.961 -49.552     
112.39 -24.961 -49.616     
112.39 -24.961 -43.842     
114 -24.961 -42.622     
112.39 -26.155 -42.622     
113.91 -27.647 -40.52     
115.64 -24.961 -41.671     
115.64 -26.156 -40.52     
112.39 -27.647 -41.614     
115.64 -24.961 -41.671     
113.91 -27.647 -40.52     
112.39 -27.647 -41.614     
114 -24.961 -42.622     
115.64 -24.961 -41.671     
112.39 -27.647 -41.614     
112.39 -26.155 -42.622     
114 -24.961 -42.622     
112.39 -24.961 -49.616     
115.64 -24.961 -49.552     
115.64 -23.771 -48.928     
112.39 -23.682 -48.928     
112.39 -24.961 -49.616     
115.64 -23.771 -48.928     
115.64 -23.771 -48.928     
112.39 -22.275 -48.189     
112.39 -23.682 -48.928     
115.64 -22.275 -48.153     
112.39 -22.275 -48.189     
115.64 -23.771 -48.928     
112.39 -22.275 -43.795     
114 -24.961 -42.622     
112.39 -24.961 -43.842     
113.85 -22.275 -42.622     
114 -24.961 -42.622     
112.39 -22.275 -43.795     
114 -24.961 -42.622     
113.85 -22.275 -42.622     
115.64 -22.275 -41.605     
115.64 -24.961 -41.671     
114 -24.961 -42.622     
115.64 -22.275 -41.605     
115.64 -19.842 -46.826     
114.13 -19.589 -46.826     
112.39 -19.589 -46.972     
115.64 -19.842 -46.826     
112.39 -19.589 -46.972     
115.64 -22.275 -48.153     
115.64 -22.275 -48.153     
112.39 -19.589 -46.972     
112.39 -22.275 -48.189     
115.64 -19.842 -46.826     
115.64 -19.589 -46.695     
114.13 -19.589 -46.826     
112.39 -19.589 -43.472     
113.85 -22.275 -42.622     
112.39 -22.275 -43.795     
113.23 -19.589 -42.622     
113.85 -22.275 -42.622     
112.39 -19.589 -43.472     
113.85 -22.275 -42.622     
113.23 -19.589 -42.622     
115.64 -19.589 -41.462     
115.64 -22.275 -41.605     
113.85 -22.275 -42.622     
115.64 -19.589 -41.462     
118.89 -40.197 -57.336     
115.64 -38.391 -56.569     
115.64 -40.019 -57.336     
118.89 -38.391 -56.431     
115.64 -38.391 -56.569     
118.89 -40.197 -57.336     
115.64 -38.391 -56.569     
118.89 -38.391 -56.431     
118.89 -36.128 -55.234     
115.64 -35.957 -55.234     
115.64 -38.391 -56.569     
118.89 -36.128 -55.234     
118.89 -36.128 -55.234     
115.64 -35.705 -55.095     
115.64 -35.957 -55.234     
118.89 -35.705 -55.013     
115.64 -35.705 -55.095     
118.89 -36.128 -55.234     
118.89 -35.705 -55.013     
118.89 -33.019 -53.619     
115.64 -35.705 -55.095     
115.64 -35.705 -55.095     
118.89 -33.019 -53.619     
115.64 -33.019 -53.685     
115.64 -33.019 -53.685     
118.89 -33.019 -53.619     
118.89 -32.1 -53.132     
115.64 -31.926 -53.132     
115.64 -33.019 -53.685     
118.89 -32.1 -53.132     
118.89 -32.1 -53.132     
115.64 -30.333 -52.327     
115.64 -31.926 -53.132     
118.89 -30.333 -52.198     
115.64 -30.333 -52.327     
118.89 -32.1 -53.132     
115.64 -30.333 -52.327     
118.89 -30.333 -52.198     
118.89 -28.155 -51.03     
115.64 -27.893 -51.03     
115.64 -30.333 -52.327     
118.89 -28.155 -51.03     
118.89 -28.155 -51.03     
115.64 -27.647 -50.903     
115.64 -27.893 -51.03     
118.89 -27.647 -50.756     
115.64 -27.647 -50.903     
118.89 -28.155 -51.03     
118.89 -27.647 -50.756     
118.89 -24.961 -49.331     
115.64 -27.647 -50.903     
115.64 -27.647 -50.903     
118.89 -24.961 -49.331     
115.64 -24.961 -49.552     
115.64 -24.961 -41.671     
117.22 -24.961 -40.52     
115.64 -26.156 -40.52     
115.64 -24.961 -49.552     
118.89 -24.961 -49.331     
118.89 -24.169 -48.928     
115.64 -23.771 -48.928     
115.64 -24.961 -49.552     
118.89 -24.169 -48.928     
118.89 -24.169 -48.928     
115.64 -22.275 -48.153     
115.64 -23.771 -48.928     
118.89 -22.275 -47.977     
115.64 -22.275 -48.153     
118.89 -24.169 -48.928     
115.64 -22.275 -41.605     
117.22 -24.961 -40.52     
115.64 -24.961 -41.671     
117.07 -22.275 -40.52     
117.22 -24.961 -40.52     
115.64 -22.275 -41.605     
115.64 -22.275 -48.153     
118.89 -22.275 -47.977     
118.89 -20.048 -46.826     
115.64 -19.842 -46.826     
115.64 -22.275 -48.153     
118.89 -20.048 -46.826     
118.89 -20.048 -46.826     
115.64 -19.589 -46.695     
115.64 -19.842 -46.826     
118.89 -19.589 -46.585     
115.64 -19.589 -46.695     
118.89 -20.048 -46.826     
115.64 -19.589 -41.462     
117.07 -22.275 -40.52     
115.64 -22.275 -41.605     
116.79 -19.589 -40.52     
117.07 -22.275 -40.52     
115.64 -19.589 -41.462     
122.14 -40.281 -57.336     
118.89 -38.391 -56.431     
118.89 -40.197 -57.336     
122.14 -38.391 -56.318     
118.89 -38.391 -56.431     
122.14 -40.281 -57.336     
118.89 -38.391 -56.431     
122.14 -38.391 -56.318     
122.14 -36.306 -55.234     
118.89 -36.128 -55.234     
118.89 -38.391 -56.431     
122.14 -36.306 -55.234     
122.14 -36.306 -55.234     
118.89 -35.705 -55.013     
118.89 -36.128 -55.234     
122.14 -35.705 -54.919     
118.89 -35.705 -55.013     
122.14 -36.306 -55.234     
122.14 -35.705 -54.919     
122.14 -33.019 -53.48     
118.89 -35.705 -55.013     
118.89 -35.705 -55.013     
122.14 -33.019 -53.48     
118.89 -33.019 -53.619     
118.89 -33.019 -53.619     
122.14 -33.019 -53.48     
122.14 -32.349 -53.132     
118.89 -32.1 -53.132     
118.89 -33.019 -53.619     
122.14 -32.349 -53.132     
122.14 -32.349 -53.132     
118.89 -30.333 -52.198     
118.89 -32.1 -53.132     
122.14 -30.333 -52.109     
118.89 -30.333 -52.198     
122.14 -32.349 -53.132     
118.89 -30.333 -52.198     
122.14 -30.333 -52.109     
122.14 -28.144 -51.03     
118.89 -28.155 -51.03     
118.89 -30.333 -52.198     
122.14 -28.144 -51.03     
122.14 -28.144 -51.03     
118.89 -27.647 -50.756     
118.89 -28.155 -51.03     
122.14 -27.647 -50.776     
118.89 -27.647 -50.756     
122.14 -28.144 -51.03     
122.14 -27.647 -50.776     
122.14 -24.961 -49.288     
118.89 -27.647 -50.756     
118.89 -27.647 -50.756     
122.14 -24.961 -49.288     
118.89 -24.961 -49.331     
118.89 -24.961 -49.331     
122.14 -24.961 -49.288     
122.14 -24.271 -48.928     
118.89 -24.169 -48.928     
118.89 -24.961 -49.331     
122.14 -24.271 -48.928     
122.14 -24.271 -48.928     
118.89 -22.275 -47.977     
118.89 -24.169 -48.928     
122.14 -22.275 -47.923     
118.89 -22.275 -47.977     
122.14 -24.271 -48.928     
118.89 -22.275 -47.977     
122.14 -22.275 -47.923     
122.14 -20.136 -46.826     
118.89 -20.048 -46.826     
118.89 -22.275 -47.977     
122.14 -20.136 -46.826     
122.14 -20.136 -46.826     
118.89 -19.589 -46.585     
118.89 -20.048 -46.826     
122.14 -19.589 -46.545     
118.89 -19.589 -46.585     
122.14 -20.136 -46.826     
3 0 1 2
3 3 4 5
3 6 7 8
3 9 10 11
3 12 13 14
3 15 16 17
3 18 19 20
3 21 22 23
3 24 25 26
3 27 28 29
3 30 31 32
3 33 34 35
3 36 37 38
3 39 40 41
3 42 43 44
3 45 46 47
3 48 49 50
3 51 52 53
3 54 55 56
3 57 58 59
3 60 61 62
3 63 64 65
3 66 67 68
3 69 70 71
3 72 73 74
3 75 76 77
3 78 79 80
3 81 82 83
3 84 85 86
3 87 88 89
3 90 91 92
3 93 94 95
3 96 97 98
3 99 100 101
3 102 103 104
3 105 106 107
3 108 109 110
3 111 112 113
3 114 115 116
3 117 118 119
3 120 121 122
3 123 124 125
3 126 127 128
3 129 130 131
3 132 133 134
3 135 136 137
3 138 139 140
3 141 142 143
3 144 145 146
3 147 148 149
3 150 151 152
3 153 154 155
3 156 157 158
3 159 160 161
3 162 163 164
3 165 166 167
3 168 169 170
3 171 172 173
3 174 175 176
3 177 178 179
3 180 181 182
3 183 184 185
3 186 187 188
3 189 190 191
3 192 193 194
3 195 196 197
3 198 199 200
3 201 202 203
3 204 205 206
3 207 208 209
3 210 211 212
3 213 214 215
3 216 217 218
3 219 220 221
3 222 223 224
3 225 226 227
3 228 229 230
3 231 232 233
3 234 235 236
3 237 238 239
3 240 241 242
3 243 244 245
3 246 247 248
3 249 250 251
3 252 253 254
3 255 256 257
3 258 259 260
3 261 262 263
3 264 265 266
3 267 268 269
3 270 271 272
3 273 274 275
3 276 277 278
3 279 280 281
3 282 283 284
3 285 286 287
3 288 289 290
3 291 292 293
3 294 295 296
3 297 298 299
3 300 301 302
3 303 304 305
3 306 307 308
3 309 310 311
3 312 313 314
3 315 316 317
3 318 319 320
3 321 322 323
3 324 325 326
3 327 328 329
3 330 331 332
3 333 334 335
3 336 337 338
3 339 340 341
3 342 343 344
3 345 346 347
3 348 349 350
3 351 352 353
3 354 355 356
3 357 358 359
3 360 361 362
3 363 364 365
3 366 367 368
3 369 370 371
3 372 373 374
3 375 376 377
3 378 379 380
3 381 382 383
3 384 385 386
3 387 388 389
3 390 391 392
3 393 394 395
3 396 397 398
3 399 400 401
3 402 403 404
3 405 406 407
3 408 409 410
3 411 412 413
3 414 415 416
3 417 418 419
3 420 421 422
3 423 424 425
3 426 427 428
3 429 430 431
3 432 433 434
3 435 436 437
3 438 439 440
3 441 442 443
3 444 445 446
3 447 448 449
3 450 451 452
3 453 454 455
3 456 457 458
3 459 460 461
3 462 463 464
3 465 466 467
3 468 469 470
3 471 472 473
3 474 475 476
3 477 478 479
3 480 481 482
3 483 484 485
3 486 487 488
3 489 490 491
3 492 493 494
3 495 496 497
3 498 499 500
3 501 502 503
3 504 505 506
3 507 508 509
3 510 511 512
3 513 514 515
3 516 517 518
3 519 520 521
3 522 523 524
3 525 526 527
3 528 529 530
3 531 532 533
3 534 535 536
3 537 538 539
3 540 541 542
3 543 544 545
3 546 547 548
3 549 550 551
3 552 553 554
3 555 556 557
3 558 559 560
3 561 562 563
3 564 565 566
3 567 568 569
3 570 571 572
3 573 574 575
3 576 577 578
3 579 580 581
3 582 583 584
3 585 586 587
3 588 589 590
3 591 592 593
3 594 595 596
3 597 598 599
3 600 601 602
3 603 604 605
3 606 607 608
3 609 610 611
3 612 613 614
3 615 616 617
3 618 619 620
3 621 622 623
3 624 625 626
3 627 628 629
3 630 631 632
3 633 634 635
3 636 637 638
3 639 640 641
3 642 643 644
3 645 646 647
3 648 649 650
3 651 652 653
3 654 655 656
3 657 658 659
3 660 661 662
3 663 664 665
3 666 667 668
3 669 670 671
3 672 673 674
3 675 676 677
3 678 679 680
3 681 682 683
3 684 685 686
3 687 688 689
3 690 691 692
3 693 694 695
3 696 697 698
3 699 700 701
3 702 703 704
3 705 706 707
3 708 709 710
3 711 712 713
3 714 715 716
3 717 718 719
3 720 721 722
3 723 724 725
3 726 727 728
3 729 730 731
3 732 733 734
3 735 736 737
3 738 739 740
3 741 742 743
3 744 745 746
3 747 748 749
3 750 751 752
3 753 754 755
3 756 757 758
3 759 760 761
3 762 763 764
3 765 766 767
3 768 769 770
3 771 772 773
3 774 775 776
3 777 778 779
3 780 781 782
3 783 784 785
3 786 787 788
3 789 790 791
3 792 793 794
3 795 796 797
3 798 799 800
3 801 802 803
3 804 805 806
3 807 808 809
3 810 811 812
3 813 814 815
3 816 817 818
3 819 820 821
3 822 823 824
3 825 826 827
3 828 829 830
3 831 832 833
3 834 835 836
3 837 838 839
3 840 841 842
3 843 844 845
3 846 847 848
3 849 850 851
3 852 853 854
3 855 856 857
3 858 859 860
3 861 862 863
3 864 865 866
3 867 868 869
3 870 871 872
3 873 874 875
3 876 877 878
3 879 880 881
3 882 883 884
3 885 886 887
3 888 889 890
3 891 892 893
3 894 895 896
3 897 898 899
3 900 901 902
3 903 904 905
3 906 907 908
3 909 910 911
3 912 913 914
3 915 916 917
3 918 919 920
3 921 922 923
3 924 925 926
3 927 928 929
3 930 931 932
3 933 934 935
3 936 937 938
3 939 940 941
3 942 943 944
3 945 946 947
3 948 949 950
3 951 952 953
3 954 955 956
3 957 958 959
3 960 961 962
3 963 964 965
3 966 967 968
3 969 970 971
3 972 973 974
3 975 976 977
3 978 979 980
3 981 982 983
3 984 985 986
3 987 988 989
3 990 991 992
3 993 994 995
3 996 997 998
3 999 1000 1001
3 1002 1003 1004
3 1005 1006 1007
3 1008 1009 1010
3 1011 1012 1013
3 1014 1015 1016
3 1017 1018 1019
3 1020 1021 1022
3 1023 1024 1025
3 1026 1027 1028
3 1029 1030 1031
3 1032 1033 1034
3 1035 1036 1037
3 1038 1039 1040
3 1041 1042 1043
3 1044 1045 1046
3 1047 1048 1049
3 1050 1051 1052
3 1053 1054 1055
3 1056 1057 1058
3 1059 1060 1061
3 1062 1063 1064
3 1065 1066 1067
3 1068 1069 1070
3 1071 1072 1073
3 1074 1075 1076
3 1077 1078 1079
3 1080 1081 1082
3 1083 1084 1085
3 1086 1087 1088
3 1089 1090 1091
3 1092 1093 1094
3 1095 1096 1097
3 1098 1099 1100
3 1101 1102 1103
3 1104 1105 1106
3 1107 1108 1109
3 1110 1111 1112
3 1113 1114 1115
3 1116 1117 1118
3 1119 1120 1121
3 1122 1123 1124
3 1125 1126 1127
3 1128 1129 1130
3 1131 1132 1133
3 1134 1135 1136
3 1137 1138 1139
3 1140 1141 1142
3 1143 1144 1145
3 1146 1147 1148
3 1149 1150 1151
3 1152 1153 1154
3 1155 1156 1157
3 1158 1159 1160
3 1161 1162 1163
3 1164 1165 1166
3 1167 1168 1169
3 1170 1171 1172
3 1173 1174 1175
3 1176 1177 1178
3 1179 1180 1181
3 1182 1183 1184
3 1185 1186 1187
3 1188 1189 1190
3 1191 1192 1193
3 1194 1195 1196
3 1197 1198 1199
3 1200 1201 1202
3 1203 1204 1205
3 1206 1207 1208
3 1209 1210 1211
3 1212 1213 1214
3 1215 1216 1217
3 1218 1219 1220
3 1221 1222 1223
3 1224 1225 1226
3 1227 1228 1229
3 1230 1231 1232
3 1233 1234 1235
3 1236 1237 1238
3 1239 1240 1241
3 1242 1243 1244
3 1245 1246 1247
3 1248 1249 1250
3 1251 1252 1253
3 1254 1255 1256
3 1257 1258 1259
3 1260 1261 1262
3 1263 1264 1265
3 1266 1267 1268
3 1269 1270 1271
3 1272 1273 1274
3 1275 1276 1277
3 1278 1279 1280
3 1281 1282 1283
3 1284 1285 1286
3 1287 1288 1289
3 1290 1291 1292
3 1293 1294 1295
3 1296 1297 1298
3 1299 1300 1301
3 1302 1303 1304
3 1305 1306 1307
3 1308 1309 1310
3 1311 1312 1313
3 1314 1315 1316
3 1317 1318 1319
3 1320 1321 1322
3 1323 1324 1325
3 1326 1327 1328
3 1329 1330 1331
3 1332 1333 1334
3 1335 1336 1337
3 1338 1339 1340
3 1341 1342 1343
3 1344 1345 1346
3 1347 1348 1349
3 1350 1351 1352
3 1353 1354 1355
3 1356 1357 1358
